<svg id="Capa_1" data-name="Capa 1" xmlns="http://www.w3.org/2000/svg" viewBox="0 0 300.09 300.08">
  <title>decoration</title>
  <g>
    <polygon points="150.05 150.04 84.54 285.03 99.07 291.16 150.05 150.04" style="fill: #ff0000"/>
    <polygon points="150.05 150.04 108.75 294.29 124.12 297.83 150.05 150.04" style="fill: #ff0000"/>
    <polygon points="150.05 150.04 134.55 299.28 150.31 300.08 150.05 150.04" style="fill: #ff0000"/>
    <polygon points="150.05 150.04 25.9 234.31 35.43 246.88 150.05 150.04" style="fill: #ff0000"/>
    <polygon points="150.05 150.04 42.26 254.42 53.81 265.16 150.05 150.04" style="fill: #ff0000"/>
    <polygon points="150.05 150.04 62.13 271.63 75.38 280.19 150.05 150.04" style="fill: #ff0000"/>
    <polygon points="150.05 150.04 0.44 161.56 2.48 177.2 150.05 150.04" style="fill: #ff0000"/>
    <polygon points="150.05 150.04 4.66 187.14 9.36 202.19 150.05 150.04" style="fill: #ff0000"/>
    <polygon points="150.05 150.04 13.36 211.94 20.61 225.94 150.05 150.04" style="fill: #ff0000"/>
    <polygon points="150.05 150.04 15.01 84.63 8.89 99.16 150.05 150.04" style="fill: #ff0000"/>
    <polygon points="150.05 150.04 5.76 108.84 2.24 124.22 150.05 150.04" style="fill: #ff0000"/>
    <polygon points="150.05 150.04 0.79 134.65 0 150.41 150.05 150.04" style="fill: #ff0000"/>
    <polygon points="150.05 150.04 66.2 25.61 53.6 35.09 150.05 150.04" style="fill: #ff0000"/>
    <polygon points="150.05 150.04 46.03 41.89 35.26 53.41 150.05 150.04" style="fill: #ff0000"/>
    <polygon points="150.05 150.04 28.76 61.7 20.16 74.92 150.05 150.04" style="fill: #ff0000"/>
    <polygon points="150.05 150.04 137.3 0.53 121.68 2.7 150.05 150.04" style="fill: #ff0000"/>
    <polygon points="150.05 150.04 111.76 4.96 96.74 9.78 150.05 150.04" style="fill: #ff0000"/>
    <polygon points="150.05 150.04 87.03 13.86 73.09 21.23 150.05 150.04" style="fill: #ff0000"/>
    <polygon points="150.05 150.04 214.34 14.46 199.75 8.46 150.05 150.04" style="fill: #ff0000"/>
    <polygon points="150.05 150.04 190.04 5.42 174.64 2.02 150.05 150.04" style="fill: #ff0000"/>
    <polygon points="150.05 150.04 164.19 0.66 148.44 0 150.05 150.04" style="fill: #ff0000"/>
    <polygon points="150.05 150.04 274.44 66.13 264.95 53.54 150.05 150.04" style="fill: #ff0000"/>
    <polygon points="150.05 150.04 258.14 45.98 246.62 35.2 150.05 150.04" style="fill: #ff0000"/>
    <polygon points="150.05 150.04 238.33 28.71 225.1 20.11 150.05 150.04" style="fill: #ff0000"/>
    <polygon points="150.05 150.04 299.71 139.31 297.75 123.66 150.05 150.04" style="fill: #ff0000"/>
    <polygon points="150.05 150.04 295.63 113.71 291.01 98.63 150.05 150.04" style="fill: #ff0000"/>
    <polygon points="150.05 150.04 287.06 88.87 279.88 74.82 150.05 150.04" style="fill: #ff0000"/>
    <polygon points="150.05 150.04 285.22 215.16 291.31 200.61 150.05 150.04" style="fill: #ff0000"/>
    <polygon points="150.05 150.04 294.42 190.92 297.91 175.54 150.05 150.04" style="fill: #ff0000"/>
    <polygon points="150.05 150.04 299.33 165.1 300.09 149.35 150.05 150.04" style="fill: #ff0000"/>
    <polygon points="150.05 150.04 233.72 274.59 246.33 265.12 150.05 150.04" style="fill: #ff0000"/>
    <polygon points="150.05 150.04 253.91 258.33 264.7 246.83 150.05 150.04" style="fill: #ff0000"/>
    <polygon points="150.05 150.04 271.21 238.54 279.83 225.34 150.05 150.04" style="fill: #ff0000"/>
    <polygon points="150.05 150.04 161.03 299.68 176.67 297.7 150.05 150.04" style="fill: #ff0000"/>
    <polygon points="150.05 150.04 186.62 295.56 201.69 290.92 150.05 150.04" style="fill: #ff0000"/>
    <polygon points="150.05 150.04 211.45 286.94 225.48 279.74 150.05 150.04" style="fill: #ff0000"/>
    <polygon points="150.05 150.04 150.05 57.37 146.78 90.08 141.32 58.46 150.05 150.04" style="fill: #ff0000"/>
    <polygon points="150.05 150.04 134.02 58.77 136.46 91.55 125.62 61.35 150.05 150.04" style="fill: #ff0000"/>
    <polygon points="150.05 150.04 118.31 62.98 126.44 94.82 110.49 66.99 150.05 150.04" style="fill: #ff0000"/>
    <polygon points="150.05 150.04 105.22 68.94 118.17 99.14 98.11 74.11 150.05 150.04" style="fill: #ff0000"/>
    <polygon points="150.05 150.04 91.87 77.91 109.86 105.42 85.76 84.24 150.05 150.04" style="fill: #ff0000"/>
    <polygon points="150.05 150.04 80.15 89.2 102.67 113.14 75.25 96.49 150.05 150.04" style="fill: #ff0000"/>
    <polygon points="150.05 150.04 70.33 102.79 96.8 122.28 66.83 110.84 150.05 150.04" style="fill: #ff0000"/>
    <polygon points="150.05 150.04 63.37 117.28 92.8 131.9 61.3 125.82 150.05 150.04" style="fill: #ff0000"/>
    <polygon points="150.05 150.04 58.97 132.94 90.51 142.19 58.44 141.71 150.05 150.04" style="fill: #ff0000"/>
    <polygon points="150.05 150.04 57.39 148.92 90.05 152.58 58.37 157.65 150.05 150.04" style="fill: #ff0000"/>
    <polygon points="150.05 150.04 58.59 164.96 91.39 162.92 61.07 173.39 150.05 150.04" style="fill: #ff0000"/>
    <polygon points="150.05 150.04 62.61 180.72 94.55 172.97 66.52 188.59 150.05 150.04" style="fill: #ff0000"/>
    <polygon points="150.05 150.04 68.99 194.95 99.19 181.96 74.17 202.05 150.05 150.04" style="fill: #ff0000"/>
    <polygon points="150.05 150.04 77.98 208.29 105.47 190.27 84.31 214.39 150.05 150.04" style="fill: #ff0000"/>
    <polygon points="150.05 150.04 89.27 219.99 113.19 197.45 96.57 224.89 150.05 150.04" style="fill: #ff0000"/>
    <polygon points="150.05 150.04 102.55 229.6 122.12 203.2 110.6 233.14 150.05 150.04" style="fill: #ff0000"/>
    <polygon points="150.05 150.04 117.02 236.62 131.73 207.23 125.56 238.71 150.05 150.04" style="fill: #ff0000"/>
    <polygon points="150.05 150.04 132.67 241.06 142.01 209.55 141.44 241.62 150.05 150.04" style="fill: #ff0000"/>
    <polygon points="150.05 150.04 148.59 242.69 152.37 210.04 157.32 241.74 150.05 150.04" style="fill: #ff0000"/>
    <polygon points="150.05 150.04 164.63 241.55 162.71 208.74 173.07 239.1 150.05 150.04" style="fill: #ff0000"/>
    <polygon points="150.05 150.04 180.4 237.59 172.78 205.62 188.29 233.7 150.05 150.04" style="fill: #ff0000"/>
    <polygon points="150.05 150.04 195.33 230.88 182.2 200.75 202.41 225.67 150.05 150.04" style="fill: #ff0000"/>
    <polygon points="150.05 150.04 208.63 221.84 190.49 194.43 214.69 215.48 150.05 150.04" style="fill: #ff0000"/>
    <polygon points="150.05 150.04 220.28 210.49 197.62 186.67 225.14 203.17 150.05 150.04" style="fill: #ff0000"/>
    <polygon points="150.05 150.04 229.34 197.99 203.05 178.26 232.92 189.96 150.05 150.04" style="fill: #ff0000"/>
    <polygon points="150.05 150.04 236.44 183.55 207.13 168.68 238.57 175.03 150.05 150.04" style="fill: #ff0000"/>
    <polygon points="150.05 150.04 240.97 167.93 209.51 158.41 241.58 159.17 150.05 150.04" style="fill: #ff0000"/>
    <polygon points="150.05 150.04 242.7 151.31 210.04 147.59 241.73 142.57 150.05 150.04" style="fill: #ff0000"/>
    <polygon points="150.05 150.04 241.53 135.27 208.72 137.25 239.06 126.83 150.05 150.04" style="fill: #ff0000"/>
    <polygon points="150.05 150.04 237.53 119.5 205.58 127.19 233.63 111.63 150.05 150.04" style="fill: #ff0000"/>
    <polygon points="150.05 150.04 231.07 105.08 200.89 118.09 225.89 97.99 150.05 150.04" style="fill: #ff0000"/>
    <polygon points="150.05 150.04 222.08 91.75 194.6 109.78 215.75 85.66 150.05 150.04" style="fill: #ff0000"/>
    <polygon points="150.05 150.04 210.78 80.05 186.87 102.61 203.48 75.16 150.05 150.04" style="fill: #ff0000"/>
    <polygon points="150.05 150.04 197.25 70.3 177.78 96.78 189.19 66.8 150.05 150.04" style="fill: #ff0000"/>
    <polygon points="150.05 150.04 182.75 63.34 168.15 92.78 174.21 61.28 150.05 150.04" style="fill: #ff0000"/>
    <polygon points="150.05 150.04 167.09 58.95 157.86 90.5 158.32 58.42 150.05 150.04" style="fill: #ff0000"/>
  </g>
</svg>
